# xmcd
#
# Track frame offsets:
#	150
#	11971
#	25269
#	37502
#	49465
#	62761
#	75946
#	88224
#	99686
#	111092
#
# Disc length: 1694
#
# Revision: 3
# Processed by: cddbd v1.5.1PL0 Copyright (c) Steve Scherf et al.
# Submitted via: EZCDDA 4.3.2
# Normalized: r2:TDELIM( - )
#
DISCID=77069c0a
DTITLE=Various Artist - Country's Greatest (Volume 3)
DYEAR=1900
DGENRE=
TTITLE0=Conway Twitty - Linda On My Mind (1975)
TTITLE1=Lynn Anderson - Rose Garden (1970)
TTITLE2=Moe Brandy - Cheatin' Situation (1979)
TTITLE3=Freddy Fender - Before The Next Teardrop Falls (1975)
TTITLE4=Johnny Paycheck - Slide Off Your Satin Sheets (1977)
TTITLE5=T. Graham Brown - I Tell It Like It Used To Be (1985)
TTITLE6=Jeanne Pruett - Satin Sheets (1973)
TTITLE7=Mel McDaniel - Stand Up (1985)
TTITLE8=Sammi Smith - Help Me Make It Through The Night (1970)
TTITLE9=Lee Greenwood - Somebody's Gonna Love You (1983)
EXTD=
EXTT0=
EXTT1=
EXTT2=
EXTT3=
EXTT4=
EXTT5=
EXTT6=
EXTT7=
EXTT8=
EXTT9=
PLAYORDER=
